<?xml version="1.0" standalone="no"?>
<!DOCTYPE svg PUBLIC "-//W3C//DTD SVG 20010904//EN"
 "http://www.w3.org/TR/2001/REC-SVG-20010904/DTD/svg10.dtd">
<svg version="1.0" xmlns="http://www.w3.org/2000/svg"
 width="1024.000000pt" height="1024.000000pt" viewBox="0 0 1024.000000 1024.000000"
 preserveAspectRatio="xMidYMid meet">
<metadata>
Created by potrace 1.11, written by Peter Selinger 2001-2013
</metadata>
<g transform="translate(0.000000,1024.000000) scale(0.100000,-0.100000)"
fill="#000000" stroke="none">
<path d="M5555 8298 c-21 -62 -39 -121 -40 -130 -2 -9 -9 -27 -16 -40 -7 -13
-11 -23 -10 -23 2 0 -14 -54 -34 -120 -21 -66 -38 -126 -38 -132 0 -7 -4 -13
-9 -13 -4 0 -8 -7 -8 -16 0 -8 -16 -64 -35 -124 -20 -60 -38 -118 -40 -129 -2
-11 -9 -29 -15 -40 -6 -12 -9 -21 -6 -21 3 0 -2 -17 -11 -37 -13 -33 -46 -136
-58 -183 -2 -8 -11 -35 -20 -60 -9 -25 -18 -54 -21 -64 -2 -11 -21 -74 -43
-140 -40 -121 -152 -472 -158 -491 -1 -5 -4 -17 -6 -25 -2 -8 -6 -22 -9 -30
-10 -26 -50 -152 -53 -164 -1 -6 -5 -18 -8 -26 -9 -24 -27 -84 -27 -92 0 -4
-9 -28 -20 -53 -11 -25 -20 -49 -20 -53 0 -11 -102 -342 -117 -382 -3 -8 -8
-21 -10 -27 -1 -7 -5 -19 -6 -25 -2 -7 -7 -20 -10 -28 -3 -8 -29 -89 -57 -180
-29 -91 -60 -190 -70 -220 -10 -30 -39 -122 -65 -205 -26 -82 -65 -206 -87
-275 -22 -69 -51 -161 -65 -205 -14 -44 -28 -87 -31 -95 -3 -8 -6 -19 -7 -25
-2 -5 -17 -53 -34 -105 -17 -52 -30 -97 -30 -100 1 -3 -6 -23 -14 -45 -9 -22
-39 -114 -67 -205 -94 -297 -122 -384 -136 -423 -8 -20 -14 -39 -14 -42 0 -3
-2 -10 -4 -17 -3 -7 -13 -42 -25 -78 -30 -98 -150 -477 -173 -545 -10 -33 -21
-67 -23 -75 -3 -15 -67 -215 -107 -335 -10 -33 -21 -67 -23 -75 -2 -8 -12 -42
-23 -75 -19 -56 -132 -413 -147 -463 l-6 -22 581 2 582 3 40 125 c22 69 41
130 42 135 1 6 7 24 13 40 6 17 25 77 43 135 18 58 41 128 51 157 10 29 21 63
23 75 3 13 23 79 46 148 23 69 43 132 45 140 2 8 16 56 33 105 28 86 47 145
197 620 37 116 72 226 78 245 6 19 12 40 13 45 1 6 18 57 37 115 19 58 47 146
62 195 15 50 31 99 35 110 5 11 25 74 45 140 20 66 39 127 42 135 3 8 7 21 9
28 1 8 6 21 10 30 4 9 8 22 9 27 5 21 97 311 108 340 6 17 13 36 14 43 4 19 9
36 16 52 12 31 40 125 38 125 -2 0 4 18 12 40 9 22 32 94 52 160 20 66 40 129
45 140 10 23 43 125 46 140 1 6 21 71 45 145 24 74 44 137 44 140 0 3 9 30 20
60 10 30 20 60 21 65 3 17 115 368 130 408 7 20 11 37 9 37 -3 0 -1 9 6 21 6
12 22 60 36 108 14 47 28 91 31 96 4 6 7 15 8 21 1 5 21 71 45 145 23 73 43
136 44 139 0 3 4 11 8 18 5 6 6 12 3 12 -3 0 2 16 10 35 8 19 14 37 14 40 -1
3 22 78 51 168 76 238 140 438 209 657 34 107 74 231 88 275 14 44 27 82 27
85 1 3 9 29 18 59 9 30 17 56 17 58 0 2 -261 3 -579 3 l-580 0 -36 -112z"/>
<path d="M2789 7307 c-9 -7 -31 -24 -50 -39 -41 -33 -179 -140 -272 -211 -38
-29 -76 -59 -86 -67 -10 -8 -72 -55 -136 -105 -65 -49 -129 -100 -143 -112
-14 -13 -28 -23 -31 -23 -3 0 -20 -13 -37 -28 -18 -15 -73 -58 -124 -97 -91
-69 -421 -325 -450 -348 -8 -7 -94 -73 -190 -147 -96 -73 -182 -140 -190 -147
-8 -7 -49 -39 -90 -70 -41 -32 -80 -62 -86 -68 -7 -5 -24 -19 -39 -30 -16 -11
-63 -47 -105 -80 -42 -33 -110 -86 -151 -117 -137 -106 -244 -189 -259 -201
-9 -7 -45 -34 -80 -62 -36 -27 -67 -52 -70 -55 -3 -3 -41 -32 -85 -65 -44 -33
-85 -65 -92 -71 -13 -12 -22 -4 137 -118 58 -42 116 -83 129 -93 13 -10 42
-31 66 -48 97 -68 211 -149 220 -157 15 -13 245 -179 360 -260 33 -23 65 -46
70 -51 6 -4 82 -60 170 -123 88 -63 227 -163 309 -222 194 -139 236 -169 266
-190 14 -9 27 -19 30 -22 5 -6 160 -117 188 -135 8 -5 23 -16 31 -22 23 -18
325 -235 351 -253 12 -8 28 -20 34 -25 6 -6 40 -31 76 -56 36 -25 130 -93 210
-151 138 -100 146 -104 156 -84 6 11 41 80 79 151 37 72 108 209 157 305 50
96 110 212 134 258 24 45 44 84 44 86 0 6 -235 178 -265 194 -14 7 -25 17 -25
22 0 5 -9 12 -20 15 -11 3 -26 12 -32 18 -7 7 -38 30 -68 52 -30 22 -57 42
-60 45 -3 3 -13 10 -22 15 -18 11 -217 154 -233 168 -5 4 -66 48 -135 97 -69
49 -129 93 -135 97 -5 5 -50 38 -100 73 -49 35 -96 70 -103 77 -7 7 -17 13
-22 13 -5 0 -15 6 -22 13 -7 7 -29 24 -48 37 -19 13 -37 27 -40 30 -3 3 -13
10 -22 15 -25 15 -222 159 -228 166 -3 4 -18 15 -35 25 -16 11 -51 35 -77 53
l-47 34 127 94 c70 51 135 100 144 107 9 8 29 23 45 33 15 10 34 23 41 30 8 7
32 26 55 42 37 25 365 267 392 288 6 5 35 26 65 48 30 22 64 48 74 57 11 10
23 18 27 18 4 0 14 6 21 13 7 6 33 27 58 45 25 18 106 78 180 133 74 55 152
112 173 127 21 15 56 41 77 57 21 17 88 66 148 110 83 60 110 84 106 97 -3 10
-23 50 -46 90 -22 40 -41 78 -42 83 -1 6 -11 26 -22 45 -12 19 -33 60 -49 90
-15 30 -53 105 -85 165 -32 61 -83 161 -115 223 -31 61 -60 112 -64 112 -3 0
-13 -6 -22 -13z"/>
<path d="M7347 7222 c-27 -53 -69 -135 -93 -182 -115 -216 -274 -529 -274
-538 0 -5 43 -40 96 -78 52 -38 101 -74 107 -79 7 -6 46 -35 87 -65 41 -30 84
-63 94 -72 11 -10 23 -18 27 -18 4 0 14 -6 21 -13 7 -7 38 -30 68 -52 30 -22
60 -43 65 -48 6 -4 69 -51 140 -103 72 -53 141 -105 155 -115 14 -11 68 -51
120 -89 52 -38 100 -73 105 -78 6 -5 24 -17 40 -28 16 -10 37 -26 47 -34 26
-23 39 -33 93 -70 28 -19 59 -42 69 -52 11 -10 23 -18 26 -18 4 0 16 -8 28
-18 11 -10 57 -45 102 -77 45 -33 105 -78 135 -100 29 -22 65 -49 80 -60 l27
-19 -25 -21 c-13 -11 -34 -27 -46 -35 -13 -8 -51 -35 -86 -60 -34 -25 -72 -52
-85 -60 -12 -8 -32 -23 -43 -33 -12 -11 -65 -49 -117 -85 -52 -36 -99 -70
-105 -75 -5 -4 -116 -84 -245 -177 -129 -93 -239 -172 -245 -177 -5 -4 -50
-37 -100 -73 -49 -35 -91 -68 -93 -72 -2 -4 -8 -8 -13 -8 -8 0 -178 -120 -237
-167 -12 -10 -83 -61 -157 -113 -74 -52 -135 -101 -135 -108 0 -7 15 -41 34
-75 18 -34 83 -159 144 -277 220 -428 237 -460 244 -460 7 0 176 117 188 130
3 3 25 19 50 36 88 61 129 90 211 149 46 33 95 68 109 77 53 36 148 104 176
125 16 13 121 88 234 168 113 79 214 151 225 159 11 8 112 80 225 160 113 79
214 152 225 160 11 9 110 79 220 157 110 77 207 146 216 153 9 7 42 32 75 54
167 117 558 395 564 401 3 3 31 24 63 45 54 37 58 41 40 53 -10 7 -25 19 -33
26 -8 7 -67 51 -130 99 -63 48 -180 137 -260 198 -80 61 -158 121 -174 133
-51 39 -100 77 -123 95 -11 9 -63 49 -113 87 -51 39 -145 111 -209 160 -65 50
-130 99 -145 110 -16 11 -33 25 -40 30 -6 6 -29 23 -51 39 -22 17 -42 33 -45
36 -3 3 -21 17 -40 30 -19 13 -40 29 -46 35 -6 5 -23 19 -38 30 -55 39 -101
75 -116 88 -8 8 -51 40 -95 73 -73 54 -293 223 -449 343 -33 26 -158 121 -276
211 -118 90 -216 168 -218 172 -2 4 -8 8 -14 8 -5 0 -15 6 -23 13 -34 32 -175
137 -183 137 -4 0 -29 -44 -55 -98z"/>
</g>
</svg>
