<svg xmlns="http://www.w3.org/2000/svg" viewBox="0 0 135 40"><path fill="#A6A6A6" d="M130.197 40H4.73C2.12 40 0 37.872 0 35.267V4.727C0 2.12 2.122 0 4.73 0h125.467C132.803 0 135 2.12 135 4.726v30.54c0 2.606-2.197 4.734-4.803 4.734z"/><path d="M134.032 35.268c0 2.116-1.714 3.83-3.834 3.83H4.728c-2.118 0-3.838-1.714-3.838-3.83V4.725C.89 2.61 2.61.89 4.73.89h125.467c2.12 0 3.834 1.72 3.834 3.835l.002 30.543z"/><g fill="#FFF"><path d="M30.128 19.784c-.03-3.223 2.64-4.79 2.76-4.864-1.51-2.203-3.852-2.504-4.675-2.528-1.967-.207-3.875 1.177-4.877 1.177-1.022 0-2.565-1.158-4.228-1.124-2.14.033-4.142 1.272-5.24 3.196-2.266 3.923-.576 9.688 1.595 12.86 1.086 1.552 2.355 3.286 4.016 3.225 1.624-.067 2.23-1.036 4.192-1.036 1.943 0 2.513 1.037 4.207.998 1.743-.028 2.84-1.56 3.89-3.127 1.254-1.78 1.758-3.532 1.778-3.622-.04-.014-3.387-1.29-3.42-5.154zM26.928 10.306c.874-1.093 1.472-2.58 1.306-4.09-1.265.057-2.847.876-3.758 1.945-.806.943-1.526 2.487-1.34 3.94 1.42.105 2.88-.718 3.792-1.794z"/></g><g fill="#FFF"><path d="M53.645 31.504h-2.27l-1.245-3.91h-4.324l-1.185 3.91h-2.21l4.284-13.308h2.646l4.305 13.308zm-3.89-5.55L48.63 22.48c-.12-.355-.342-1.19-.67-2.507h-.04c-.132.566-.343 1.402-.633 2.507l-1.105 3.475h3.573zM64.662 26.588c0 1.632-.44 2.922-1.323 3.87-.79.842-1.772 1.263-2.943 1.263-1.264 0-2.172-.453-2.725-1.36h-.04v5.054H55.5V25.067c0-1.026-.027-2.08-.08-3.16h1.876l.12 1.522h.04c.71-1.147 1.79-1.72 3.237-1.72 1.132 0 2.077.448 2.833 1.343.758.896 1.136 2.074 1.136 3.535zm-2.172.078c0-.934-.21-1.704-.632-2.31-.46-.632-1.08-.948-1.856-.948-.526 0-1.004.176-1.43.523-.43.35-.71.808-.84 1.374-.066.264-.1.48-.1.65v1.6c0 .698.215 1.287.643 1.768s.984.72 1.668.72c.803 0 1.428-.31 1.875-.927.448-.62.672-1.435.672-2.45zM75.7 26.588c0 1.632-.442 2.922-1.325 3.87-.79.842-1.77 1.263-2.94 1.263-1.265 0-2.173-.453-2.725-1.36h-.04v5.054h-2.132V25.067c0-1.026-.027-2.08-.08-3.16h1.876l.12 1.522h.04c.71-1.147 1.788-1.72 3.237-1.72 1.132 0 2.077.448 2.835 1.343.755.896 1.134 2.074 1.134 3.535zm-2.173.078c0-.934-.21-1.704-.633-2.31-.46-.632-1.078-.948-1.855-.948-.528 0-1.005.176-1.433.523-.428.35-.707.808-.838 1.374-.066.264-.1.48-.1.65v1.6c0 .698.214 1.287.64 1.768.428.48.984.72 1.67.72.803 0 1.428-.31 1.875-.927.448-.62.672-1.435.672-2.45zM88.04 27.772c0 1.132-.394 2.053-1.183 2.764-.867.777-2.074 1.165-3.625 1.165-1.432 0-2.58-.275-3.45-.828l.495-1.777c.936.566 1.963.85 3.082.85.802 0 1.427-.182 1.876-.544.447-.36.67-.847.67-1.453 0-.54-.184-.995-.553-1.364-.367-.37-.98-.712-1.836-1.03-2.33-.868-3.494-2.14-3.494-3.815 0-1.094.408-1.99 1.225-2.69.814-.698 1.9-1.047 3.258-1.047 1.21 0 2.217.212 3.02.633l-.533 1.738c-.75-.407-1.598-.61-2.547-.61-.75 0-1.336.184-1.756.552-.355.33-.533.73-.533 1.205 0 .526.203.96.61 1.303.356.316 1 .658 1.937 1.027 1.145.46 1.986 1 2.527 1.618.54.616.81 1.387.81 2.307zM95.088 23.508h-2.35v4.66c0 1.184.414 1.776 1.244 1.776.38 0 .697-.033.947-.1l.058 1.62c-.42.157-.973.236-1.658.236-.842 0-1.5-.257-1.975-.77-.473-.514-.71-1.376-.71-2.587v-4.837h-1.4v-1.6h1.4V20.15l2.093-.633v2.39h2.35v1.6zM105.69 26.627c0 1.475-.42 2.686-1.263 3.633-.883.975-2.055 1.46-3.516 1.46-1.407 0-2.528-.466-3.364-1.4s-1.254-2.113-1.254-3.534c0-1.487.43-2.705 1.293-3.652.86-.948 2.023-1.422 3.484-1.422 1.407 0 2.54.467 3.395 1.402.818.907 1.226 2.078 1.226 3.513zm-2.21.07c0-.886-.19-1.645-.573-2.278-.447-.767-1.086-1.15-1.914-1.15-.857 0-1.508.384-1.955 1.15-.383.633-.572 1.404-.572 2.316 0 .885.19 1.644.572 2.276.46.766 1.105 1.148 1.936 1.148.814 0 1.453-.39 1.914-1.168.393-.645.59-1.412.59-2.296zM112.62 23.783c-.21-.04-.435-.06-.67-.06-.75 0-1.33.284-1.74.85-.354.5-.532 1.133-.532 1.896v5.034h-2.13l.02-6.574c0-1.106-.028-2.113-.08-3.02h1.856l.078 1.835h.06c.224-.63.58-1.14 1.065-1.52.475-.343.988-.514 1.54-.514.198 0 .376.015.534.04v2.033zM122.156 26.252c0 .382-.025.704-.078.967h-6.396c.025.947.334 1.672.928 2.172.54.447 1.236.67 2.092.67.947 0 1.81-.15 2.588-.453l.334 1.48c-.908.395-1.98.592-3.217.592-1.488 0-2.656-.438-3.506-1.313-.847-.876-1.272-2.05-1.272-3.525 0-1.447.395-2.652 1.186-3.613.828-1.026 1.947-1.54 3.355-1.54 1.382 0 2.43.514 3.14 1.54.563.815.846 1.823.846 3.02zm-2.033-.553c.014-.633-.125-1.18-.414-1.64-.37-.593-.937-.89-1.7-.89-.697 0-1.264.29-1.697.87-.355.46-.566 1.014-.63 1.658h4.44z"/></g><g fill="#FFF"><path d="M48.604 13.433h-1.048v-2.95h-2.832v2.95h-1.048V6.896h1.048v2.667h2.832V6.896h1.048v6.537zM54.036 13.433h-.944l-.077-.543h-.03c-.322.433-.78.65-1.375.65-.445 0-.804-.143-1.075-.427-.246-.258-.368-.58-.368-.96 0-.576.24-1.015.723-1.32.48-.303 1.16-.452 2.032-.445V10.3c0-.62-.326-.93-.978-.93-.465 0-.875.116-1.23.348l-.214-.69c.438-.27.98-.406 1.617-.406 1.233 0 1.85.65 1.85 1.95v1.736c0 .472.024.847.07 1.125zm-2.203-5.907c0 .155-.05.285-.148.388-.1.104-.223.155-.37.155s-.272-.054-.375-.16c-.103-.108-.154-.235-.154-.384s.053-.276.16-.383c.104-.106.23-.16.38-.16.145 0 .268.054.364.16.096.107.143.234.143.383zm1.116 4.287v-.727c-1.158-.02-1.736.297-1.736.95 0 .246.067.43.202.553.135.122.306.183.512.183.23 0 .444-.073.64-.218s.318-.33.363-.558c.013-.05.02-.113.02-.184zm.698-4.287c0 .155-.05.285-.15.388-.1.104-.225.155-.38.155-.146 0-.27-.054-.37-.16-.098-.108-.148-.235-.148-.384s.05-.276.153-.383c.103-.106.23-.16.385-.16.147 0 .27.054.365.16.096.107.145.234.145.383zM62.552 13.433h-1.028V10.79c0-.87-.298-1.305-.893-1.305-.284 0-.512.108-.683.324-.172.215-.258.468-.258.758v2.864H58.66v-2.777c0-.355-.073-.64-.22-.852s-.36-.32-.644-.32c-.285 0-.518.117-.7.35-.18.23-.27.496-.27.792v2.806H55.8v-3.365c0-.414-.013-.863-.038-1.35h.9l.05.718h.03c.322-.542.8-.814 1.435-.814.64 0 1.073.293 1.3.88h.02c.148-.245.333-.442.553-.59.278-.194.598-.29.96-.29.42 0 .767.14 1.038.426.336.355.505.886.505 1.59v2.797zM66.762 9.504h-1.154v2.29c0 .582.204.873.61.873.19 0 .344-.016.467-.05l.028.796c-.207.078-.48.117-.814.117-.415 0-.738-.126-.97-.378-.234-.252-.35-.676-.35-1.27V9.503h-.69V8.72h.69v-.865l1.027-.31v1.173h1.154v.786zM71.748 13.433h-.94l-.08-.543H70.7c-.322.433-.78.65-1.377.65-.446 0-.805-.143-1.077-.427-.246-.258-.368-.58-.368-.96 0-.576.24-1.015.723-1.32.483-.303 1.16-.452 2.034-.445V10.3c0-.62-.326-.93-.98-.93-.464 0-.874.116-1.228.348l-.213-.688c.438-.27.98-.407 1.618-.407 1.233 0 1.85.65 1.85 1.95v1.736c0 .47.023.845.068 1.123zm-1.088-1.62v-.727c-1.156-.02-1.735.297-1.735.95 0 .246.067.43.202.553.135.122.307.183.512.183.23 0 .444-.073.64-.218.197-.146.318-.33.363-.558.01-.05.017-.113.017-.184zM77.508 7.312c0 .188-.06.34-.184.456-.123.117-.28.175-.475.175-.177 0-.323-.06-.442-.18-.12-.12-.18-.27-.18-.45s.06-.33.184-.446.275-.175.457-.175c.18 0 .33.06.454.175s.184.264.184.445zm-.115 6.12h-1.05V8.72h1.05v4.713z"/></g></svg>