<svg id="Layer_1" data-name="Layer 1" xmlns="http://www.w3.org/2000/svg" viewBox="0 0 188.721 283.866"><defs><style>.cls-1{fill:#fff;}</style></defs><title>beta</title><path class="cls-1" d="M147.872,145.4c.584,6.239,5.026,8.693,9.53,10.922,5.662,2.8,11.777,4.171,18,5.112a101.9,101.9,0,0,0,18.979,1.143c9.766-.356,19.407-1.557,28.553-5.277a37.663,37.663,0,0,0,5.535-2.837c3.22-1.984,5.85-4.48,6.371-8.6.123.4.264.8.366,1.2q5.254,20.949,10.48,41.9c.22.885.582,1.123,1.487,1.3,8.473,1.617,14.78,6.173,17.643,14.443,5.063,14.624,9.8,29.361,14.666,44.055,1.779,5.375,3.68,10.716,5.241,16.155,2,6.972.562,13.139-5.145,17.958a17.382,17.382,0,0,1-10.3,3.736c-.995.074-2,.016-3,.016q-76.077,0-152.153-.024c-6.116-.005-11.239-2.3-14.652-7.608-2.925-4.549-3.14-9.5-1.559-14.51,2.4-7.612,4.982-15.168,7.487-22.747,4.019-12.157,7.944-24.346,12.089-36.459,2.978-8.7,9.338-13.558,18.324-15.048.857-.142.888-.693,1.025-1.231,1.061-4.172,2.094-8.35,3.138-12.526q3.713-14.847,7.433-29.692C147.5,146.424,147.645,146.077,147.872,145.4ZM136.41,192.6c-.169.6-.262.9-.339,1.2-2.688,10.665-5.264,21.36-8.1,31.985a24.583,24.583,0,0,0,3.143,20.734,42.225,42.225,0,0,0,14.625,13.252c12.619,7.332,26.441,10.348,40.845,11.031a103.272,103.272,0,0,0,20.9-1.125,86.169,86.169,0,0,0,25.411-7.782c6.578-3.284,12.531-7.418,17.051-13.327,4.834-6.319,6.944-13.319,4.957-21.245q-3.039-12.123-6.109-24.239c-.9-3.584-1.789-7.172-2.73-10.945a15.784,15.784,0,0,1-4.648,10.089c-4.45,4.762-10.062,7.715-16.066,9.945-11.979,4.451-24.411,5.948-37.14,5.61a106.269,106.269,0,0,1-19.458-2.227c-7.379-1.577-14.509-3.895-20.942-7.942C142.267,204.137,137.567,199.919,136.41,192.6Z" transform="translate(-96.939 -34.925)"/><path class="cls-1" d="M285.385,293.949c.05.06.143.119.143.178.017,4.227.517,8.506-.545,12.65-1.658,6.473-6.156,10.068-12.5,11.489a22.488,22.488,0,0,1-4.866.5q-76.367.038-152.734.021a20.107,20.107,0,0,1-9.479-2.145,14.745,14.745,0,0,1-8.3-12.493c-.274-3.37-.05-6.78-.05-10.414.518.267.889.44,1.243.644a31.9,31.9,0,0,0,16.225,4.331q76.607-.017,153.214.006a32.339,32.339,0,0,0,16.674-4.441,6.65,6.65,0,0,1,.749-.364C285.216,293.889,285.307,293.935,285.385,293.949Z" transform="translate(-96.939 -34.925)"/><path class="cls-1" d="M192.155,108.592c-8.841-.121-16.708-.71-24.286-3.215a27.389,27.389,0,0,1-5.906-2.833c-2.432-1.529-2.765-2.769-2.066-5.569q5.877-23.561,11.769-47.118a20.368,20.368,0,0,1,39.507.984c3.767,15.612,7.715,31.182,11.655,46.751a4.075,4.075,0,0,1-1.619,4.5c-2.579,2.161-5.713,3.16-8.878,4.01a67.821,67.821,0,0,1-14.989,2.217C195.307,108.4,193.275,108.533,192.155,108.592Z" transform="translate(-96.939 -34.925)"/></svg>