<?xml version="1.0" encoding="utf-8"?>
<!-- Generator: Adobe Illustrator 21.0.2, SVG Export Plug-In . SVG Version: 6.00 Build 0)  -->
<svg version="1.1" id="Layer_1" xmlns="http://www.w3.org/2000/svg" xmlns:xlink="http://www.w3.org/1999/xlink" x="0px" y="0px"
	 viewBox="0 0 665 581" style="enable-background:new 0 0 665 581;" xml:space="preserve">
<style type="text/css">
	.st0{fill:#EA5B0C;}
</style>
<title>störning</title>
<path class="st0" d="M662.7,512.1L662.7,512.1c0.8-5.7-7.7-17.2-7.7-22.1L478,193c0,0-61.3-120.2-100.2-168.5c-2.7-3.3-5.7-6.3-9-9
	C351.1-3,322.4-5.2,302,10.3c-5,3.7-9.5,8-13.5,12.9c-4,4.8-10,15.3-10,15.3C234,98,157,241,157,241L8,493l-8,26.6
	c0,1.4,0.1,2.7,0.1,4C0.1,524.8,0,526,0,527.2c0,22.3,14.7,41.9,36,48.2c8,3.7,16.6,5.6,25.4,5.6h542.2c8.3,0,24.3-1.7,30.7-7.4l0,0
	C658.1,563.5,670.5,536.9,662.7,512.1L662.7,512.1z M285,207.5c0.1-22.3,18.2-40.4,40.5-40.5h11c22.3,0.1,40.4,18.2,40.5,40.5v159.9
	c-0.1,22.3-18.2,40.4-40.5,40.5h-11c-22.3-0.1-40.4-18.2-40.5-40.5V207.5z M331,513c-26,0-47.2-17.2-47.2-38.3s21.1-38.3,47.2-38.3
	s47.2,17.2,47.2,38.3S357,513,331,513z"/>
</svg>
